<svg width="82" height="81" viewBox="0 0 82 81" fill="none" xmlns="http://www.w3.org/2000/svg">
<g id="Google__G__Logo 1">
<path id="Vector" d="M76.5302 41.4113C76.5302 38.7979 76.2956 36.285 75.8601 33.8726H41.1484V48.1459H60.9837C60.1125 52.7361 57.4991 56.6228 53.579 59.2362V68.5172H65.5404C72.5095 62.0841 76.5302 52.6356 76.5302 41.4113Z" fill="#4285F4"/>
<path id="Vector_2" d="M41.1484 77.4292C51.0996 77.4292 59.4424 74.1457 65.5404 68.5168L53.579 59.2358C50.2954 61.4471 46.1072 62.7873 41.1484 62.7873C31.5659 62.7873 23.4241 56.3208 20.5091 47.6094H8.24609V57.1249C14.3106 69.1534 26.7411 77.4292 41.1484 77.4292Z" fill="#34A853"/>
<path id="Vector_3" d="M20.5086 47.5755C19.7715 45.3642 19.3359 43.0188 19.3359 40.5729C19.3359 38.127 19.7715 35.7816 20.5086 33.5702V24.0547H8.24563C5.73273 29.0135 4.29199 34.6089 4.29199 40.5729C4.29199 46.5368 5.73273 52.1323 8.24563 57.0911L17.7947 49.6528L20.5086 47.5755Z" fill="#FBBC05"/>
<path id="Vector_4" d="M41.1484 18.3927C46.5763 18.3927 51.4011 20.269 55.2542 23.8876L65.8084 13.3333C59.4089 7.36938 51.0996 3.71729 41.1484 3.71729C26.7411 3.71729 14.3106 11.9931 8.24609 24.0551L20.5091 33.5706C23.4241 24.8592 31.5659 18.3927 41.1484 18.3927Z" fill="#EA4335"/>
</g>
</svg>
