<svg width="37" height="37" viewBox="0 0 37 37" fill="none" xmlns="http://www.w3.org/2000/svg">
<g id="Star">
<path id="Star 1" d="M17.2392 2.52608C17.7123 1.57391 19.0706 1.57391 19.5437 2.52607L23.4073 10.3024C23.5947 10.6794 23.9547 10.941 24.3711 11.0026L32.9608 12.2742C34.0125 12.4299 34.4323 13.7217 33.6729 14.4658L27.4711 20.5434C27.1704 20.8381 27.0329 21.2613 27.103 21.6764L28.548 30.2386C28.7249 31.287 27.6261 32.0854 26.6837 31.5931L18.9871 27.573C18.6139 27.3781 18.169 27.3781 17.7958 27.573L10.0992 31.5931C9.15681 32.0854 8.05793 31.287 8.23487 30.2386L9.67987 21.6764C9.74994 21.2613 9.61244 20.8381 9.31173 20.5434L3.10999 14.4658C2.35062 13.7217 2.77035 12.4299 3.8221 12.2742L12.4117 11.0026C12.8282 10.941 13.1882 10.6794 13.3755 10.3024L17.2392 2.52608Z" fill="#FEA500"/>
</g>
</svg>
